<svg width="177" height="54" viewBox="0 0 177 54" fill="none" xmlns="http://www.w3.org/2000/svg">
<path d="M136.091 13.1977C141.631 13.3453 146.385 14.0682 150.187 15.6927C160.6 20.1459 160.458 27.3506 149.869 31.8502C141.134 35.5624 127.024 36.7386 114.975 33.7989C108.729 32.2748 103.562 30.2478 98.8181 27.9961C97.4372 27.3405 96.0698 26.6799 94.573 25.9624C94.176 26.1137 93.7749 26.2523 93.4097 26.4047C87.8655 28.715 82.2276 30.979 75.7138 32.8112C71.0804 34.1143 66.1492 35.1696 60.6407 35.6042C48.6351 36.5514 37.4935 34.6102 31.3752 29.8945C23.9808 24.1955 28.2783 16.7669 41.1304 13.199C49.1942 10.96 57.794 10.9152 66.5724 12.4393C74.1757 13.7595 80.4234 15.8879 86.0439 18.3559C89.3639 19.8137 92.4441 21.3693 95.6339 22.879C95.8657 22.9892 96.1103 23.0936 96.5471 23.2862C99.8607 21.7443 103.099 20.2329 106.355 18.7279C107.038 18.4118 107.546 18.0991 107.57 17.631C107.862 12.7483 113.834 10.2502 123.913 8.93304C126.418 8.60558 129.02 8.4077 131.509 8.0625C133.764 7.74944 135.927 7.31719 138.399 6.89062C138.201 7.37913 138.065 7.85391 137.809 8.3173C136.008 11.5815 132.828 14.543 126.799 16.8218C122.395 18.4875 117.083 19.207 111.217 19.2479C111.052 19.2479 110.886 19.2211 110.423 19.1809C112.53 17.9779 114.491 16.8251 116.537 15.6988C118.571 14.5798 120.689 13.489 122.672 12.3218C121.953 12.5993 121.155 12.8488 120.528 13.1588C117.29 14.7499 114.096 16.357 110.885 17.9581C106.944 19.9224 103 21.8867 99.0531 23.851C98.5862 24.0824 98.1797 24.2384 98.8308 24.5612C103.852 27.0549 108.995 29.5014 115.543 31.3102C123.333 33.4621 131.579 33.9887 140.128 32.1747C151.653 29.7305 156.218 23.7372 150.564 18.8153C147.661 16.2884 143.338 14.4569 137.004 13.5171C136.792 13.4838 136.588 13.4427 136.393 13.3942C136.32 13.3805 136.293 13.3373 136.091 13.1977ZM92.4004 24.8384C89.1106 23.2647 86.0312 21.7175 82.7588 20.246C77.7164 17.9789 72.1754 15.9706 65.3805 14.6605C56.7093 12.9887 47.6179 13.4006 41.425 15.8856C34.2108 18.7798 31.6881 22.3577 33.9115 26.4352C35.7577 29.8252 40.4641 32.2728 48.5224 33.3706C54.8368 34.2311 61.0227 33.966 67.0425 32.8256C76.8056 30.9767 84.5153 27.9783 92.4004 24.8384Z" fill="#FAF0E7" stroke="#FAF0E7" stroke-width="0.25" stroke-miterlimit="10"/>
<path d="M12.6172 48.99C12.8465 48.8505 13.0242 48.6972 13.1444 48.5353C13.2873 48.3561 13.3602 48.1684 13.3604 47.9795V43.0295C13.3601 42.8406 13.2872 42.653 13.1444 42.474C13.0242 42.3121 12.8465 42.1588 12.6172 42.0193V41.9688H23.4229L23.9256 43.6358H23.6873C23.4099 43.3553 23.0569 43.0892 22.6352 42.8426C22.2574 42.6339 21.7639 42.4674 21.1979 42.3578C20.6071 42.24 19.8724 42.181 18.9936 42.181H15.6362V45.3531H18.8236C20.245 45.3531 21.1235 45.0602 21.4592 44.4742H21.6974V46.4443H21.4592C21.1077 45.8584 20.2292 45.5654 18.8236 45.5654H15.6362V48.8282H19.5653C20.4436 48.8282 21.1783 48.7693 21.7697 48.6514C22.3358 48.542 22.8294 48.3755 23.2069 48.1666C23.5743 47.9615 23.9258 47.6971 24.2615 47.3734H24.4997L23.9962 49.0405H12.6172V48.99Z" fill="#FAF0E7" stroke="#FAF0E7" stroke-width="0.5" stroke-miterlimit="10"/>
<path d="M32.5987 48.9903C32.828 48.8508 33.0057 48.6975 33.126 48.5356C33.2687 48.3566 33.3417 48.169 33.3419 47.9801V42.1814H31.8086C30.6106 42.1814 29.6762 42.3041 29.0055 42.5497C28.3348 42.7952 27.7437 43.1673 27.2324 43.666H26.9941L27.5214 41.9688H41.4653L41.9687 43.666H41.7305C41.235 43.1749 40.6527 42.8045 39.9836 42.5547C39.3144 42.3049 38.3801 42.1804 37.1805 42.181H35.6233V47.9798C35.6236 48.1687 35.6965 48.3563 35.8393 48.5353C35.9596 48.6971 36.1371 48.8504 36.3658 48.99V49.0405H32.5987V48.9903Z" fill="#FAF0E7" stroke="#FAF0E7" stroke-width="0.5" stroke-miterlimit="10"/>
<path d="M45.4883 48.99C45.7172 48.8504 45.895 48.6971 46.0155 48.5353C46.1581 48.3562 46.2307 48.1686 46.2307 47.9798V43.0295C46.2307 42.8406 46.158 42.653 46.0155 42.474C45.895 42.3121 45.7172 42.1588 45.4883 42.0193V41.9688H56.2932L56.7967 43.6358H56.5584C56.2805 43.3553 55.9269 43.0891 55.5047 42.8426C55.1266 42.6338 54.6328 42.4674 54.0666 42.3578C53.4758 42.24 52.7413 42.181 51.8631 42.181H48.5081V45.3531H51.6947C53.1161 45.3531 53.9946 45.0602 54.3303 44.4742H54.5685V46.4443H54.3303C53.9793 45.8584 53.1008 45.5654 51.6947 45.5654H48.5081V48.8282H52.438C53.3162 48.8282 54.051 48.7693 54.6423 48.6514C55.2083 48.5419 55.7019 48.3754 56.0796 48.1666C56.502 47.9202 56.8556 47.654 57.1333 47.3734H57.3716L56.8681 49.0405H45.4883V48.99Z" fill="#FAF0E7" stroke="#FAF0E7" stroke-width="0.5" stroke-miterlimit="10"/>
<path d="M71.9978 48.8385C71.4549 48.6675 71.0121 48.4463 70.7035 48.192C70.3329 47.8754 70.0168 47.548 69.7577 47.2123C69.5555 46.9398 69.3112 46.6731 69.0264 46.4141C68.8115 46.2217 68.5059 46.0498 68.1283 45.9088C67.7558 45.7738 67.2773 45.7022 66.7863 45.7079H64.8218V47.9797C64.8221 48.1686 64.895 48.3561 65.0378 48.5352C65.1581 48.697 65.3356 48.8503 65.5643 48.9899V49.0404H61.8027V48.9899C62.032 48.8504 62.2098 48.6971 62.33 48.5352C62.4728 48.3561 62.5457 48.1686 62.546 47.9797V43.0297C62.5457 42.8408 62.4727 42.6532 62.33 42.4742C62.2098 42.3123 62.032 42.159 61.8027 42.0195V41.969H67.6971C68.7033 41.9643 69.704 42.0322 70.6558 42.1699C71.5558 42.3038 72.2787 42.5108 72.8245 42.791C73.3702 43.0711 73.6416 43.4196 73.6384 43.8366C73.6384 44.2138 73.4002 44.5355 72.9237 44.8016C72.4496 45.0659 71.8227 45.2745 71.1029 45.4076C70.3922 45.5432 69.6293 45.6236 68.8509 45.645V45.6651C69.4586 45.6671 70.0446 45.7603 70.5042 45.9279C70.9725 46.0991 71.3588 46.3065 71.6421 46.539C71.9905 46.8292 72.2986 47.1277 72.5648 47.4329C72.9804 47.8843 73.3676 48.2261 73.7265 48.4585C74.0854 48.6909 74.5447 48.807 75.1042 48.807C75.2558 48.8081 75.4062 48.7961 75.5463 48.7717C75.6864 48.7474 75.8132 48.7112 75.9189 48.6654L76.0627 48.716C75.8706 48.8441 75.5906 48.9445 75.2599 49.0039C74.8929 49.0699 74.4971 49.1026 74.0981 49.1C73.2458 49.1009 72.5457 49.0137 71.9978 48.8385ZM67.3858 45.4946C68.5357 45.4946 69.4661 45.3496 70.177 45.0594C70.888 44.7692 71.2432 44.3617 71.2427 43.8369C71.2427 43.3115 70.8753 42.904 70.1405 42.6145C69.4057 42.325 68.4234 42.1799 67.1937 42.1792C66.7888 42.1806 66.3846 42.1941 65.9843 42.2198C65.5898 42.2423 65.2007 42.2795 64.8218 42.3309V45.4926L67.3858 45.4946Z" fill="#FAF0E7" stroke="#FAF0E7" stroke-width="0.5" stroke-miterlimit="10"/>
<path d="M79.27 48.99C79.5804 48.8351 79.8469 48.6656 80.0641 48.4847C80.241 48.3269 80.3309 48.1543 80.3269 47.9798V43.0295C80.3308 42.855 80.241 42.6823 80.0641 42.5246C79.8469 42.3437 79.5804 42.1741 79.27 42.0193V41.9688H82.3129L91.5368 47.5442V43.0295C91.5405 42.8549 91.4504 42.6823 91.2732 42.5246C91.0563 42.3436 90.7898 42.1741 90.4791 42.0193V41.9688H93.2107V42.0196C92.8999 42.1743 92.6333 42.3439 92.4167 42.5249C92.2395 42.6826 92.1494 42.8553 92.153 43.0298V49.0408H91.3383L80.9408 42.7874V47.9795C80.9366 48.154 81.0268 48.3267 81.2044 48.4844C81.42 48.6652 81.6852 48.8348 81.9945 48.9896V49.0402H79.2637L79.27 48.99Z" fill="#FAF0E7" stroke="#FAF0E7" stroke-width="0.5" stroke-miterlimit="10"/>
<path d="M95.5859 48.9911C95.9892 48.8746 96.3451 48.7313 96.6397 48.5669C96.9504 48.387 97.2006 48.1898 97.3829 47.9809L103.037 41.9297H103.851L109.507 47.9806C109.688 48.179 109.904 48.3715 110.153 48.5565C110.378 48.7138 110.644 48.8599 110.947 48.9917V49.0423H106.682V48.9917C106.852 48.9114 106.986 48.819 107.079 48.7189C107.185 48.6098 107.239 48.4931 107.238 48.3753C107.23 48.2371 107.166 48.1004 107.047 47.9715L105.776 46.5988H99.3316L98.0611 47.9525C97.927 48.0941 97.8541 48.2447 97.8459 48.3971C97.8459 48.6395 98.0841 48.8382 98.5605 48.9931V49.0436H95.5899L95.5859 48.9911ZM102.534 43.1016L99.4912 46.3828H105.576L102.534 43.1016Z" fill="#FAF0E7" stroke="#FAF0E7" stroke-width="0.5" stroke-miterlimit="10"/>
<path d="M119.424 43.0291C119.252 42.8321 119.039 42.6417 118.789 42.4599C118.561 42.3011 118.291 42.1533 117.986 42.0193V41.9688H122.251V42.0193C121.885 42.1868 121.687 42.4079 121.7 42.6357C121.708 42.7881 121.781 42.9385 121.915 43.08L126.228 47.8887L130.565 43.1105C130.741 42.9083 130.829 42.7398 130.828 42.6052C130.828 42.3628 130.589 42.1675 130.109 42.0193V41.9688H133.081V42.0193C132.667 42.1338 132.302 42.2774 132.002 42.4439C131.688 42.6264 131.438 42.8272 131.26 43.0398L125.749 49.0807H124.934L119.424 43.0291Z" fill="#FAF0E7" stroke="#FAF0E7" stroke-width="0.5" stroke-miterlimit="10"/>
<path d="M136.602 48.99C136.831 48.8504 137.008 48.6971 137.129 48.5353C137.271 48.3562 137.344 48.1686 137.344 47.9798V43.0295C137.344 42.8406 137.271 42.653 137.129 42.474C137.008 42.3121 136.831 42.1588 136.602 42.0193V41.9688H140.291V42.0196C140.062 42.1592 139.885 42.3125 139.764 42.4743C139.621 42.6533 139.548 42.8409 139.548 43.0298V47.9795C139.548 48.1683 139.621 48.356 139.764 48.5349C139.885 48.6968 140.062 48.8501 140.291 48.9896V49.0402H136.602V48.99Z" fill="#FAF0E7" stroke="#FAF0E7" stroke-width="0.5" stroke-miterlimit="10"/>
<path d="M149.448 48.9903C149.677 48.8507 149.855 48.6975 149.975 48.5356C150.118 48.3566 150.191 48.169 150.191 47.9801V42.1814H148.654C147.456 42.1814 146.521 42.3041 145.851 42.5497C145.181 42.7952 144.59 43.1673 144.078 43.666H143.84L144.367 41.9688H158.311L158.814 43.666H158.576C158.081 43.1749 157.498 42.8045 156.829 42.5547C156.16 42.3049 155.225 42.1804 154.025 42.181H152.466V47.9798C152.466 48.1687 152.539 48.3563 152.682 48.5353C152.802 48.6972 152.98 48.8505 153.209 48.99V49.0405H149.448V48.9903Z" fill="#FAF0E7" stroke="#FAF0E7" stroke-width="0.5" stroke-miterlimit="10"/>
<path d="M159.172 48.9911C159.575 48.8746 159.931 48.7313 160.226 48.5669C160.536 48.387 160.787 48.1898 160.969 47.9809L166.623 41.9297H167.437L173.092 47.9806C173.273 48.179 173.489 48.3715 173.738 48.5565C173.963 48.7138 174.229 48.8599 174.532 48.9917V49.0423H170.267V48.9917C170.437 48.9114 170.571 48.819 170.664 48.7189C170.77 48.6098 170.824 48.4931 170.823 48.3753C170.816 48.2371 170.751 48.1004 170.632 47.9715L169.361 46.5988H162.917L161.646 47.9525C161.512 48.094 161.438 48.2446 161.43 48.3971C161.43 48.6395 161.668 48.8382 162.145 48.9931V49.0436H159.174L159.172 48.9911ZM166.12 43.1016L163.077 46.3828H169.163L166.12 43.1016Z" fill="#FAF0E7" stroke="#FAF0E7" stroke-width="0.5" stroke-miterlimit="10"/>
</svg>
